<svg width="32" height="32" viewBox="0 0 669 665" fill="none" xmlns="http://www.w3.org/2000/svg">
<path d="M350.3 1.1C325.5 3.3 300.3 13.6 282.3 28.9C254.5 52.6 233.3 93.6 212.2 164.5C192.9 229.2 173.9 317.9 169.5 363.4C167.8 381.9 167.5 418.4 169.1 429.6C172.5 454.2 187.6 482.3 209 504C244.8 540.2 303.8 567.8 379 583.4C415.7 591.1 439.1 593.4 470.7 592.7C501.1 592 514 589.3 533.2 579.2C588.2 550.6 618.7 483.5 652.4 317.5C667.1 244.7 670.7 211.6 668.1 172.4C666.4 146.8 663.5 134 655.7 118.5C642.8 92.7 614.4 68.4 572.9 47.6C505.9 14 416 -4.8 350.3 1.1ZM448 203.9C495.6 216.1 536.6 227 539.2 228.2C545.4 231 551.4 237 554.7 243.8C556.8 248.1 557.3 250.6 557.3 256.3C557.3 270.2 550.4 281.1 537.7 287C526.4 292.4 528.6 292.8 429.1 267.4C380.4 255 339.1 244.2 337.3 243.5C332.5 241.5 325.1 234.2 322.3 228.5C318.9 221.9 318.2 212.4 320.4 204.8C323.3 194.9 331.6 186.5 342.8 182.3C350.8 179.4 357.3 180.7 448 203.9ZM376.3 326.4C405.1 333.7 430.3 340.5 432.3 341.5C437.8 344.1 443.9 350.5 446.8 356.8C449 361.4 449.5 364 449.5 370C449.5 376.5 449 378.5 446.2 384.2C440.4 396 429.3 403.2 416.5 403.3C407.4 403.3 307.6 377.7 300.6 373.5C294 369.5 288.6 362.2 286.4 354.4C282 337.9 292.4 319.7 309.3 314.4C317.9 311.8 322 312.5 376.3 326.4Z" fill="white"/>
<path d="M161 107.6C135.4 116.3 74.4 149.8 49.5 168.8C32.1 182.2 17.6 199.5 9.39999 216.7C2.59999 231.1 1.99999 233.9 0.799988 255C-2.10001 310.6 9.19999 367.6 44 472C74.1 562.4 98.5 609.9 128 635.5C146.1 651.2 167.6 661 190.7 664.1C201.7 665.6 230.9 664.7 247.5 662.5C285.8 657.3 322.4 648 343.7 638C360.5 630.2 362.6 625 351.7 618.6C344.9 614.6 334.3 610.5 308.5 601.9C240.7 579.2 209.2 562.7 184.4 536.8C148.2 498.8 134 449.1 137.9 373.6C139.9 335.7 142.3 320.7 161 228C180.8 130.2 183.6 114.3 181.7 110.3C180.6 107.8 175.2 104 172.9 104C172.1 104 166.8 105.6 161 107.6Z" fill="white"/>
</svg>
